<svg id="Layer_1" data-name="Layer 1" xmlns="http://www.w3.org/2000/svg" width="647.7" height="644.1" viewBox="0 0 647.7 644.1">
  <defs>
    <style>
      .cls-1 {
        opacity: 0.41;
      }

      .cls-2 {
        fill: #fff;
        stroke: #d1c7c7;
        stroke-miterlimit: 10;
      }
    </style>
  </defs>
  <title>Artboard 1</title>
  <g class="cls-1">
    <path class="cls-2" d="M549.2,159.3l1.3.2,42.3,8.6c2.6.5,2.8.3,2.2-2.2-1.8-7.2-3.5-14.4-5.4-21.5a2.1,2.1,0,0,1,1-2.7l9.6-7,43.4-31.8a8.9,8.9,0,0,0,1.4-1.7,11.6,11.6,0,0,0-1.8-1.2l-5.8-2.3-9.1-3.6,10-32.3-.7-.6L604.9,71c-2.1-5-4-9.8-6-14.6a11.9,11.9,0,0,0-1.4-2,11.4,11.4,0,0,0-1.8,1.6L577.1,81.6l-4.3,5.7c.4-5.3,1.2-10.4,2-15.6q3.8-22.8,7.7-45.6c.3-1.8-.4-2.1-1.9-1.5l-1.5.6-15.9,6.2L545.2.5h-.8l-17.8,31-17.2-6.6c-2.1-.8-2.5-.5-2.1,1.8l8.4,48.1,2.1,12.5a4,4,0,0,1-1.6-1.4L494.6,57a17.3,17.3,0,0,0-2.3-2.1,20.6,20.6,0,0,0-1.6,2.7c-1.9,4.6-3.7,9.3-5.6,14l-32.6-9.9-.7.6,10.2,32.3-17.5,7.2,2.6,2.1,52.6,37.8a2.8,2.8,0,0,1,1.3,3.5c-1.8,7-3.5,14.1-5.2,21.1a22.9,22.9,0,0,0-.3,2.7l46.3-9.8c0,1.1,0,2.1,0,3q-.7,18.6-1.5,37.3c0,1.2-.2,2.2,1.5,2.2h7c1.5,0,1.8-.7,1.8-2-.6-10.4-1.1-20.8-1.6-31.2C549.1,165.3,549.2,162.3,549.2,159.3Z"/>
    <path class="cls-2" d="M274.7,56.9l25.1,33.7c1.6-.8,2.2-1.8,1.9-3.6q-4.7-26.5-9.3-53.1c-.4-2.4-.8-4.8-1.2-7.7l18.2,7L326.7,2.9l1.4,2.3c5,8.6,10,17.1,14.9,25.7,1,1.7,1.9,2,3.7,1.3l15.8-6.3c-.6,3.9-1.1,7.4-1.7,10.8q-4.3,26-8.7,52a14.9,14.9,0,0,0,.2,3.2,14.7,14.7,0,0,0,2.4-2.1L377.4,59l1.8-2.4,3.9,9.4c.6,1.6,1.4,3.1,1.9,4.7s1.5,1.9,3.2,1.4l29.5-9.3c-.3,1.1-.4,1.8-.7,2.6-2.7,8.8-5.3,17.6-8.2,26.3-.8,2.4-.1,3.2,2.1,4,4.5,1.6,8.8,3.4,13.6,5.3l-8.5,6.2-44.8,32.7c-1.4,1-1.9,1.8-1.4,3.6,1.8,6.7,3.3,13.5,5,20.2.1.6.2,1.2.4,2l-46.2-9.3,2,42.8h-6.6c0-.8,0-1.5,0-2.3q.7-18.8,1.5-37.5c.1-2.9-.1-3-3-2.4l-43.1,9.1,2.1-9c1-4.2,1.9-8.4,3.1-12.6.6-2.2,0-3.3-1.8-4.6L231.6,103l-1.6-1.2,11.4-4.6c5-2,4.9-1.9,3.3-7.1l-7.8-24.5-.6-2,5.7,1.7c8,2.4,15.9,4.8,23.9,7.3,1.9.6,2.6.1,3.3-1.6C270.9,66.5,272.7,62,274.7,56.9Z"/>
    <path class="cls-2" d="M49.7,56.9,74.8,90.6c1.6-.8,2.2-1.8,1.9-3.6Q72,60.5,67.4,33.9c-.4-2.4-.8-4.8-1.2-7.7l18.2,7L101.7,2.9l1.4,2.3c5,8.6,10,17.1,14.9,25.7,1,1.7,1.9,2,3.7,1.3l15.8-6.3c-.6,3.9-1.1,7.4-1.7,10.8q-4.3,26-8.7,52a14.9,14.9,0,0,0,.2,3.2,14.7,14.7,0,0,0,2.4-2.1L152.4,59l1.8-2.4,3.9,9.4c.6,1.6,1.4,3.1,1.9,4.7s1.5,1.9,3.2,1.4l29.5-9.3c-.3,1.1-.4,1.8-.7,2.6-2.7,8.8-5.3,17.6-8.2,26.3-.8,2.4-.1,3.2,2.1,4,4.5,1.6,8.8,3.4,13.6,5.3l-8.5,6.2-44.8,32.7c-1.4,1-1.9,1.8-1.4,3.6,1.8,6.7,3.3,13.5,5,20.2.1.6.2,1.2.4,2l-46.2-9.3,2,42.8H99.4c0-.8,0-1.5,0-2.3q.7-18.8,1.5-37.5c.1-2.9-.1-3-3-2.4l-43.1,9.1,2.1-9c1-4.2,1.9-8.4,3.1-12.6.6-2.2,0-3.3-1.8-4.6L6.6,103,5,101.7l11.4-4.6c5-2,4.9-1.9,3.3-7.1L11.9,65.6l-.6-2,5.7,1.7c8,2.4,15.9,4.8,23.9,7.3,1.9.6,2.6.1,3.3-1.6C45.9,66.5,47.7,62,49.7,56.9Z"/>
  </g>
  <g class="cls-1">
    <path class="cls-2" d="M551.2,380.3l1.3.2,42.3,8.6c2.6.5,2.8.3,2.2-2.2-1.8-7.2-3.5-14.4-5.4-21.5a2.1,2.1,0,0,1,1-2.7l9.6-7,43.4-31.8a8.9,8.9,0,0,0,1.4-1.7,11.6,11.6,0,0,0-1.8-1.2l-5.8-2.3-9.1-3.6,10-32.3-.7-.6L606.9,292c-2.1-5-4-9.8-6-14.6a11.9,11.9,0,0,0-1.4-2,11.4,11.4,0,0,0-1.8,1.6l-18.6,25.5-4.3,5.7c.4-5.3,1.2-10.4,2-15.6q3.8-22.8,7.7-45.6c.3-1.8-.4-2.1-1.9-1.5l-1.5.6-15.9,6.2-18-30.8h-.8l-17.8,31-17.2-6.6c-2.1-.8-2.5-.5-2.1,1.8l8.4,48.1,2.1,12.5a4,4,0,0,1-1.6-1.4L496.6,278a17.3,17.3,0,0,0-2.3-2.1,20.6,20.6,0,0,0-1.6,2.7c-1.9,4.6-3.7,9.3-5.6,14l-32.6-9.9-.7.6,10.2,32.3-17.5,7.2,2.6,2.1,52.6,37.8a2.8,2.8,0,0,1,1.3,3.5c-1.8,7-3.5,14.1-5.2,21.1a22.9,22.9,0,0,0-.3,2.7l46.3-9.8c0,1.1,0,2.1,0,3q-.7,18.6-1.5,37.3c0,1.2-.2,2.2,1.5,2.2h7c1.5,0,1.8-.7,1.8-2-.6-10.4-1.1-20.8-1.6-31.2C551.1,386.3,551.2,383.3,551.2,380.3Z"/>
    <path class="cls-2" d="M276.7,277.9l25.1,33.7c1.6-.8,2.2-1.8,1.9-3.6q-4.7-26.5-9.3-53.1c-.4-2.4-.8-4.8-1.2-7.7l18.2,7,17.3-30.3,1.4,2.3c5,8.6,10,17.1,14.9,25.7,1,1.7,1.9,2,3.7,1.3l15.8-6.3c-.6,3.9-1.1,7.4-1.7,10.8q-4.3,26-8.7,52a14.9,14.9,0,0,0,.2,3.2,14.7,14.7,0,0,0,2.4-2.1L379.4,280l1.8-2.4,3.9,9.4c.6,1.6,1.4,3.1,1.9,4.7s1.5,1.9,3.2,1.4l29.5-9.3c-.3,1.1-.4,1.8-.7,2.6-2.7,8.8-5.3,17.6-8.2,26.3-.8,2.4-.1,3.2,2.1,4,4.5,1.6,8.8,3.4,13.6,5.3l-8.5,6.2-44.8,32.7c-1.4,1-1.9,1.8-1.4,3.6,1.8,6.7,3.3,13.5,5,20.2.1.6.2,1.2.4,2l-46.2-9.3,2,42.8h-6.6c0-.8,0-1.5,0-2.3q.7-18.8,1.5-37.5c.1-2.9-.1-3-3-2.4l-43.1,9.1,2.1-9c1-4.2,1.9-8.4,3.1-12.6.6-2.2,0-3.3-1.8-4.6L233.6,324l-1.6-1.2,11.4-4.6c5-2,4.9-1.9,3.3-7.1l-7.8-24.5-.6-2,5.7,1.7c8,2.4,15.9,4.8,23.9,7.3,1.9.6,2.6.1,3.3-1.6C272.9,287.5,274.7,283,276.7,277.9Z"/>
    <path class="cls-2" d="M51.7,277.9l25.1,33.7c1.6-.8,2.2-1.8,1.9-3.6q-4.7-26.5-9.3-53.1c-.4-2.4-.8-4.8-1.2-7.7l18.2,7,17.3-30.3,1.4,2.3c5,8.6,10,17.1,14.9,25.7,1,1.7,1.9,2,3.7,1.3l15.8-6.3c-.6,3.9-1.1,7.4-1.7,10.8q-4.3,26-8.7,52a14.9,14.9,0,0,0,.2,3.2,14.7,14.7,0,0,0,2.4-2.1L154.4,280l1.8-2.4,3.9,9.4c.6,1.6,1.4,3.1,1.9,4.7s1.5,1.9,3.2,1.4l29.5-9.3c-.3,1.1-.4,1.8-.7,2.6-2.7,8.8-5.3,17.6-8.2,26.3-.8,2.4-.1,3.2,2.1,4,4.5,1.6,8.8,3.4,13.6,5.3l-8.5,6.2-44.8,32.7c-1.4,1-1.9,1.8-1.4,3.6,1.8,6.7,3.3,13.5,5,20.2.1.6.2,1.2.4,2l-46.2-9.3,2,42.8h-6.6c0-.8,0-1.5,0-2.3q.7-18.8,1.5-37.5c.1-2.9-.1-3-3-2.4l-43.1,9.1,2.1-9c1-4.2,1.9-8.4,3.1-12.6.6-2.2,0-3.3-1.8-4.6L8.6,324,7,322.7l11.4-4.6c5-2,4.9-1.9,3.3-7.1l-7.8-24.5-.6-2,5.7,1.7c8,2.4,15.9,4.8,23.9,7.3,1.9.6,2.6.1,3.3-1.6C47.9,287.5,49.7,283,51.7,277.9Z"/>
  </g>
  <g class="cls-1">
    <path class="cls-2" d="M545.2,601.3l1.3.2,42.3,8.6c2.6.5,2.8.3,2.2-2.2-1.8-7.2-3.5-14.4-5.4-21.5a2.1,2.1,0,0,1,1-2.7l9.6-7,43.4-31.8a8.9,8.9,0,0,0,1.4-1.7,11.6,11.6,0,0,0-1.8-1.2l-5.8-2.3-9.1-3.6,10-32.3-.7-.6L600.9,513c-2.1-5-4-9.8-6-14.6a11.9,11.9,0,0,0-1.4-2,11.4,11.4,0,0,0-1.8,1.6l-18.6,25.5-4.3,5.7c.4-5.3,1.2-10.4,2-15.6q3.8-22.8,7.7-45.6c.3-1.8-.4-2.1-1.9-1.5l-1.5.6-15.9,6.2-18-30.8h-.8l-17.8,31-17.2-6.6c-2.1-.8-2.5-.5-2.1,1.8l8.4,48.1,2.1,12.5a4,4,0,0,1-1.6-1.4L490.6,499a17.3,17.3,0,0,0-2.3-2.1,20.6,20.6,0,0,0-1.6,2.7c-1.9,4.6-3.7,9.3-5.6,14l-32.6-9.9-.7.6,10.2,32.3-17.5,7.2,2.6,2.1,52.6,37.8a2.8,2.8,0,0,1,1.3,3.5c-1.8,7-3.5,14.1-5.2,21.1a22.9,22.9,0,0,0-.3,2.7l46.3-9.8c0,1.1,0,2.1,0,3q-.7,18.6-1.5,37.3c0,1.2-.2,2.2,1.5,2.2h7c1.5,0,1.8-.7,1.8-2-.6-10.4-1.1-20.8-1.6-31.2C545.1,607.3,545.2,604.3,545.2,601.3Z"/>
    <path class="cls-2" d="M270.7,498.9l25.1,33.7c1.6-.8,2.2-1.8,1.9-3.6q-4.7-26.5-9.3-53.1c-.4-2.4-.8-4.8-1.2-7.7l18.2,7,17.3-30.3,1.4,2.3c5,8.6,10,17.1,14.9,25.7,1,1.7,1.9,2,3.7,1.3l15.8-6.3c-.6,3.9-1.1,7.4-1.7,10.8q-4.3,26-8.7,52a14.9,14.9,0,0,0,.2,3.2,14.7,14.7,0,0,0,2.4-2.1L373.4,501l1.8-2.4,3.9,9.4c.6,1.6,1.4,3.1,1.9,4.7s1.5,1.9,3.2,1.4l29.5-9.3c-.3,1.1-.4,1.8-.7,2.6-2.7,8.8-5.3,17.6-8.2,26.3-.8,2.4-.1,3.2,2.1,4,4.5,1.6,8.8,3.4,13.6,5.3l-8.5,6.2-44.8,32.7c-1.4,1-1.9,1.8-1.4,3.6,1.8,6.7,3.3,13.5,5,20.2.1.6.2,1.2.4,2l-46.2-9.3,2,42.8h-6.6c0-.8,0-1.5,0-2.3q.7-18.8,1.5-37.5c.1-2.9-.1-3-3-2.4l-43.1,9.1,2.1-9c1-4.2,1.9-8.4,3.1-12.6.6-2.2,0-3.3-1.8-4.6L227.6,545l-1.6-1.2,11.4-4.6c5-2,4.9-1.9,3.3-7.1l-7.8-24.5-.6-2,5.7,1.7c8,2.4,15.9,4.8,23.9,7.3,1.9.6,2.6.1,3.3-1.6C266.9,508.5,268.7,504,270.7,498.9Z"/>
    <path class="cls-2" d="M45.7,498.9l25.1,33.7c1.6-.8,2.2-1.8,1.9-3.6q-4.7-26.5-9.3-53.1c-.4-2.4-.8-4.8-1.2-7.7l18.2,7,17.3-30.3,1.4,2.3c5,8.6,10,17.1,14.9,25.7,1,1.7,1.9,2,3.7,1.3l15.8-6.3c-.6,3.9-1.1,7.4-1.7,10.8q-4.3,26-8.7,52a14.9,14.9,0,0,0,.2,3.2,14.7,14.7,0,0,0,2.4-2.1L148.4,501l1.8-2.4,3.9,9.4c.6,1.6,1.4,3.1,1.9,4.7s1.5,1.9,3.2,1.4l29.5-9.3c-.3,1.1-.4,1.8-.7,2.6-2.7,8.8-5.3,17.6-8.2,26.3-.8,2.4-.1,3.2,2.1,4,4.5,1.6,8.8,3.4,13.6,5.3l-8.5,6.2-44.8,32.7c-1.4,1-1.9,1.8-1.4,3.6,1.8,6.7,3.3,13.5,5,20.2.1.6.2,1.2.4,2l-46.2-9.3,2,42.8H95.4c0-.8,0-1.5,0-2.3q.7-18.8,1.5-37.5c.1-2.9-.1-3-3-2.4l-43.1,9.1,2.1-9c1-4.2,1.9-8.4,3.1-12.6.6-2.2,0-3.3-1.8-4.6L2.6,545,1,543.7l11.4-4.6c5-2,4.9-1.9,3.3-7.1L7.9,507.6l-.6-2,5.7,1.7c8,2.4,15.9,4.8,23.9,7.3,1.9.6,2.6.1,3.3-1.6C41.9,508.5,43.7,504,45.7,498.9Z"/>
  </g>
</svg>
